<svg id="Location-Indicator--Streamline-Openmoji" viewBox="0 0 32 32" xmlns="http://www.w3.org/2000/svg" height="32" width="32">
  <desc>
    Location Indicator Streamline Emoji: https://streamlinehq.com
  </desc>
  <g id="color">
    <path fill="#ffffff" d="M10.576755555555554 10.536577777777778c0 4.169066666666667 4.513155555555556 6.7747111111111105 8.123644444444443 4.690177777777778 1.6756444444444443 -0.9674222222222221 2.7078666666666664 -2.7552888888888885 2.7078666666666664 -4.690177777777778 0 -4.169022222222222 -4.513111111111111 -6.774666666666667 -8.123644444444443 -4.690177777777778 -1.6755999999999998 0.9674666666666667 -2.7078666666666664 2.755333333333333 -2.7078666666666664 4.690177777777778" stroke-width="0.4444"></path>
    <path fill="#d0cfce" d="M15.999466666666667 31.158266666666663s-1.6126666666666665 -3.1166222222222224 -7.237466666666667 -14.030266666666666c-1.1101333333333332 -2.154 -2.513244444444444 -4.020533333333334 -2.513244444444444 -6.534133333333333 0 -5.384888888888889 4.365333333333333 -9.750222222222222 9.750222222222222 -9.750222222222222v4.188666666666666s-5.456355555555555 0.2712444444444444 -5.456355555555555 5.4243999999999994S15.999199999999998 16.068444444444445 15.999199999999998 16.068444444444445l0.0002666666666666666 15.089822222222223Z" stroke-width="0.4444"></path>
    <path fill="#d0cfce" d="M15.985688888888888 31.156399999999998s1.5641333333333332 -3.139333333333333 7.2374222222222215 -14.030266666666666c1.0765333333333333 -2.066622222222222 2.513333333333333 -4.020533333333334 2.513333333333333 -6.534177777777778 0 -5.384933333333333 -4.365333333333333 -9.750222222222222 -9.750222222222222 -9.750222222222222l-0.148 4.190533333333333s5.831466666666666 0.13906666666666667 5.743422222222223 5.600533333333333c-0.08808888888888888 5.4614666666666665 -5.743555555555555 5.435511111111111 -5.743555555555555 5.435511111111111l0.14759999999999998 15.088088888888889Z" stroke-width="0.4444"></path>
    <path fill="#9b9b9a" d="M16.43151111111111 1.1727999999999998s5.086488888888888 2.1059555555555556 6.1764 7.975333333333333c1.0638666666666665 5.728577777777778 -4.782444444444445 15.738622222222222 -6.3476 20.781955555555555C14.957066666666664 34.12951111111111 22.40448888888889 18.795555555555556 24.933377777777775 13.546222222222221c0.6154222222222222 -1.2774666666666665 0.8403555555555555 -2.7122666666666664 0.5991111111111111 -4.109511111111111 -0.5484888888888888 -3.1766666666666663 -2.4606222222222223 -8.360177777777778 -9.100977777777777 -8.263911111111112Z" stroke-width="0.4444"></path>
  </g>
  <g id="line">
    <path fill="none" stroke="#000000" stroke-linecap="round" stroke-linejoin="round" stroke-width="0.8889" d="M10.48191111111111 10.550355555555555c0 4.247822222222222 4.598399999999999 6.902711111111111 8.277111111111111 4.7787999999999995 1.7072888888888889 -0.9857333333333334 2.759022222222222 -2.8073777777777775 2.759022222222222 -4.7787999999999995 0 -4.247777777777777 -4.598399999999999 -6.902666666666667 -8.277111111111111 -4.778755555555556 -1.7072888888888889 0.9856888888888888 -2.759022222222222 2.807333333333333 -2.759022222222222 4.778755555555556"></path>
    <path fill="none" stroke="#000000" stroke-linecap="round" stroke-linejoin="round" stroke-width="0.8889" d="M15.999466666666667 31.158266666666663s-1.6126666666666665 -3.1166222222222224 -7.237466666666667 -14.030266666666666c-1.1101333333333332 -2.154 -2.513244444444444 -4.020533333333334 -2.513244444444444 -6.534133333333333 0 -5.384888888888889 4.365333333333333 -9.750222222222222 9.750222222222222 -9.750222222222222"></path>
    <path fill="none" stroke="#000000" stroke-linecap="round" stroke-linejoin="round" stroke-width="0.8889" d="M16.00048888888889 31.156399999999998s1.5641333333333332 -3.139333333333333 7.237466666666667 -14.030266666666666c1.0765333333333333 -2.066622222222222 2.5132888888888885 -4.020533333333334 2.5132888888888885 -6.534177777777778 0 -5.384933333333333 -4.365333333333333 -9.750222222222222 -9.750222222222222 -9.750222222222222"></path>
  </g>
</svg>